<svg width="98" height="24" viewBox="0 0 98 24" fill="none" xmlns="http://www.w3.org/2000/svg">
<g id="Vector">
<path d="M15.5102 13.1421C13.3777 15.223 9.92014 15.223 7.78759 13.1421C5.65504 11.0612 5.65504 7.68733 7.78759 5.60641C9.92014 3.5255 13.3777 3.5255 15.5102 5.60641C17.6428 7.68733 17.6428 11.0612 15.5102 13.1421Z" fill="url(#paint0_linear_432_6228)"/>
<path d="M20.0087 5.08366C19.4371 5.64143 18.5104 5.64143 17.9388 5.08366C17.3671 4.52589 17.3671 3.62156 17.9388 3.06379C18.5104 2.50602 19.4371 2.50602 20.0087 3.06379C20.5804 3.62156 20.5804 4.52589 20.0087 5.08366Z" fill="url(#paint1_linear_432_6228)"/>
<path d="M7.82277 20.0403L11.3262 16.6096C7.95269 16.8886 4.58484 13.9194 4.62928 10.5136L1.33885 13.729C-0.447201 15.4743 -0.446147 18.3017 1.3412 20.0458C3.13169 21.7929 6.03543 21.7905 7.82277 20.0403Z" fill="url(#paint2_linear_432_6228)"/>
<path d="M33.2979 0.134705C34.615 0.134705 35.8034 0.366698 36.8631 0.830683C37.9228 1.2797 38.7706 1.91581 39.4064 2.73901C40.0423 3.56221 40.398 4.49018 40.4737 5.52292H38.0212C37.885 4.53508 37.3854 3.72685 36.5225 3.09822C35.6747 2.4696 34.562 2.15529 33.1844 2.15529C31.7916 2.15529 30.694 2.41721 29.8917 2.94107C29.1044 3.44995 28.7108 4.116 28.7108 4.9392C28.7108 5.55285 28.9001 6.06922 29.2785 6.48831C29.657 6.89242 30.2399 7.24415 31.0271 7.5435C31.8294 7.84284 32.9119 8.1347 34.2744 8.41908C36.4695 8.88307 38.0591 9.54911 39.0431 10.4172C40.0423 11.2703 40.5418 12.3779 40.5418 13.7399C40.5418 14.7877 40.2239 15.7081 39.5881 16.5014C38.9523 17.2797 38.0818 17.8784 36.9766 18.2975C35.8715 18.7315 34.6453 18.9485 33.2979 18.9485C31.89 18.9485 30.6259 18.7091 29.5056 18.2301C28.4005 17.7512 27.5149 17.0776 26.8488 16.2095C26.1826 15.3414 25.8117 14.3312 25.736 13.1787H28.1885C28.3097 14.2862 28.8395 15.1843 29.7781 15.8728C30.7319 16.5613 31.9581 16.9055 33.4569 16.9055C34.3501 16.9055 35.1524 16.7783 35.8639 16.5239C36.5755 16.2694 37.128 15.9102 37.5216 15.4462C37.9153 14.9822 38.1121 14.4584 38.1121 13.8746C38.1121 13.2161 37.9228 12.6698 37.5443 12.2357C37.1659 11.8017 36.5755 11.435 35.7731 11.1356C34.9859 10.8213 33.8959 10.522 32.5031 10.2376C30.3837 9.80355 28.8168 9.17493 27.8025 8.35173C26.8033 7.52853 26.3038 6.39102 26.3038 4.9392C26.3038 3.96632 26.599 3.12067 27.1894 2.40224C27.7949 1.66885 28.6276 1.10758 29.6873 0.718428C30.747 0.329279 31.9505 0.134705 33.2979 0.134705Z" fill="#21EB1E"/>
<path d="M49.1953 5.38821C50.4518 5.38821 51.5872 5.68007 52.6015 6.2638C53.6158 6.84752 54.4031 7.65575 54.9632 8.68849C55.5385 9.70627 55.8261 10.8513 55.8261 12.1235C55.8261 13.3957 55.5385 14.5482 54.9632 15.5809C54.4031 16.5987 53.6158 17.3994 52.6015 17.9832C51.5872 18.5669 50.4518 18.8587 49.1953 18.8587C47.9236 18.8587 46.7806 18.5669 45.7663 17.9832C44.7672 17.3994 43.98 16.5987 43.4047 15.5809C42.8294 14.5482 42.5418 13.3957 42.5418 12.1235C42.5418 10.8513 42.8294 9.70627 43.4047 8.68849C43.98 7.65575 44.7672 6.84752 45.7663 6.2638C46.7806 5.68007 47.9236 5.38821 49.1953 5.38821ZM49.1953 7.43124C48.3475 7.43124 47.5906 7.64078 46.9245 8.05987C46.2735 8.46398 45.7588 9.02526 45.3803 9.74368C45.017 10.4471 44.8353 11.2404 44.8353 12.1235C44.8353 13.0065 45.017 13.8073 45.3803 14.5257C45.7588 15.2292 46.2735 15.7905 46.9245 16.2095C47.5906 16.6137 48.3475 16.8157 49.1953 16.8157C50.0279 16.8157 50.7773 16.6137 51.4434 16.2095C52.1095 15.7905 52.6242 15.2292 52.9876 14.5257C53.3509 13.8073 53.5326 13.0065 53.5326 12.1235C53.5326 11.2404 53.3509 10.4471 52.9876 9.74368C52.6242 9.02526 52.1095 8.46398 51.4434 8.05987C50.7773 7.64078 50.0279 7.43124 49.1953 7.43124Z" fill="#21EB1E"/>
<path d="M63.3544 12.6623L60.7884 15.334V18.5444H58.4494V0H60.7884V12.5725L67.2603 5.70253H70.008L64.8305 11.1132L70.553 18.5444H67.7825L63.3544 12.6623Z" fill="#21EB1E"/>
<path d="M77.345 18.8587C76.1037 18.8587 74.9834 18.5669 73.9842 17.9832C73.0002 17.3994 72.2281 16.5987 71.668 15.5809C71.1078 14.5482 70.8278 13.3957 70.8278 12.1235C70.8278 10.8513 71.1078 9.70627 71.668 8.68849C72.2281 7.65575 73.0002 6.84752 73.9842 6.2638C74.9834 5.68007 76.1037 5.38821 77.345 5.38821C78.5864 5.38821 79.6991 5.68007 80.6832 6.2638C81.6823 6.84752 82.4544 7.65575 82.9994 8.68849C83.5595 9.70627 83.8396 10.8513 83.8396 12.1235C83.8396 12.5426 83.8245 12.8569 83.7942 13.0664H73.1667C73.2878 14.189 73.7269 15.1094 74.4838 15.8279C75.2559 16.5463 76.2096 16.9055 77.345 16.9055C78.2079 16.9055 78.9649 16.7334 79.6159 16.3891C80.282 16.0299 80.7361 15.5809 80.9784 15.0421H83.3627C82.9994 16.1646 82.2727 17.0776 81.1827 17.7811C80.0927 18.4995 78.8135 18.8587 77.345 18.8587ZM81.5461 11.1805C81.4098 10.043 80.9632 9.12254 80.2063 8.41908C79.4493 7.70065 78.4956 7.34144 77.345 7.34144C76.1945 7.34144 75.2407 7.70065 74.4838 8.41908C73.7269 9.12254 73.2878 10.043 73.1667 11.1805H81.5461Z" fill="#21EB1E"/>
<path d="M98 5.70253L89.8931 24H87.5315L90.0975 18.275L84.534 5.70253H87.1L91.2783 15.8054L95.5702 5.70253H98Z" fill="#21EB1E"/>
</g>
<defs>
<linearGradient id="paint0_linear_432_6228" x1="65.8102" y1="7.44186" x2="57.6166" y2="39.7351" gradientUnits="userSpaceOnUse">
<stop stop-color="#54F451"/>
<stop offset="0.32142" stop-color="#43C341"/>
<stop offset="0.668455" stop-color="#38A437" stop-opacity="0.2"/>
<stop offset="0.865372" stop-color="#318E2F" stop-opacity="0"/>
</linearGradient>
<linearGradient id="paint1_linear_432_6228" x1="65.8102" y1="7.44186" x2="57.6166" y2="39.7351" gradientUnits="userSpaceOnUse">
<stop stop-color="#54F451"/>
<stop offset="0.32142" stop-color="#43C341"/>
<stop offset="0.668455" stop-color="#38A437" stop-opacity="0.2"/>
<stop offset="0.865372" stop-color="#318E2F" stop-opacity="0"/>
</linearGradient>
<linearGradient id="paint2_linear_432_6228" x1="65.8102" y1="7.44186" x2="57.6166" y2="39.7351" gradientUnits="userSpaceOnUse">
<stop stop-color="#54F451"/>
<stop offset="0.32142" stop-color="#43C341"/>
<stop offset="0.668455" stop-color="#38A437" stop-opacity="0.2"/>
<stop offset="0.865372" stop-color="#318E2F" stop-opacity="0"/>
</linearGradient>
</defs>
</svg>
