<svg width="24" height="24" viewBox="0 0 24 24" fill="none" xmlns="http://www.w3.org/2000/svg">
<g id="Property 1=Housing">
<g id="Vector">
<path d="M9.11926 6.60143L8.85117 6.22137C8.77237 6.10967 8.60426 6.11909 8.53498 6.23909L8.07746 7.03155C8.0401 7.09625 8.0434 7.17645 8.08588 7.23668L8.45247 7.75635L9.11926 6.60143Z" fill="#A8FDA7"/>
<path d="M8.04571 7.08654C8.00835 7.15124 8.01164 7.23145 8.05413 7.29167L8.42071 7.81135L9.05576 6.71142L8.73158 6.25186C8.67905 6.17739 8.56698 6.18367 8.52079 6.26367L8.04571 7.08654Z" fill="#21EB1E"/>
<path d="M4.40874 15.0453L7.95715 15.7531C8.0753 15.7767 8.19854 15.75 8.2979 15.6794L10.1081 14.3923C10.2895 14.2633 10.2325 13.9801 10.0165 13.9379L5.48877 13.0525C5.434 13.0418 5.38461 13.0129 5.34845 12.9704L2.41428 9.52046C2.28173 9.36462 2.02765 9.42872 1.97904 9.63026L1.52775 11.5017C1.49455 11.6393 1.52826 11.7838 1.61849 11.8905L4.16398 14.901C4.22696 14.9755 4.3131 15.0263 4.40874 15.0453Z" fill="#A8FDA7"/>
<path d="M5.34845 12.9704L2.28911 9.3733C2.18827 9.25473 2.21936 9.07157 2.35412 8.99037L4.71544 7.56745C4.80933 7.51087 4.92021 7.49112 5.02661 7.51202L8.08555 8.11292C8.1794 8.13135 8.26424 8.18034 8.32713 8.25239L10.3851 10.6104C10.4515 10.6865 10.4895 10.7837 10.4926 10.8856L10.5798 13.7292C10.5848 13.8927 10.4367 14.02 10.2778 13.989L5.48877 13.0525C5.434 13.0418 5.38461 13.0129 5.34845 12.9704Z" fill="#A8FDA7"/>
<path d="M10.0932 13.9336L5.90045 13.1132C5.72845 13.0795 5.64558 12.8822 5.74021 12.7316L7.05111 10.6457C7.14605 10.4946 7.3206 10.4141 7.49438 10.4413L9.9546 10.826C10.1607 10.8582 10.3137 11.0329 10.3202 11.2435L10.3952 13.6738C10.4002 13.8373 10.2522 13.9647 10.0932 13.9336Z" fill="#21EB1E"/>
<path d="M5.62284 13.2601L9.9575 14.0897C10.0658 14.1104 10.0947 14.2525 10.0036 14.3171L8.33548 15.501C8.23854 15.5698 8.11882 15.5968 8.00318 15.576L4.78283 14.9974C4.65839 14.9751 4.59271 14.8373 4.65236 14.7237L5.35128 13.3928C5.40355 13.2933 5.51402 13.2393 5.62284 13.2601Z" fill="#21EB1E"/>
<path d="M5.23449 7.87822C5.1595 7.78646 5.24254 7.64911 5.35855 7.673L8.12585 8.24291C8.15236 8.24837 8.17628 8.26238 8.19402 8.28283L10.1025 10.4835C10.1795 10.5723 10.1022 10.7111 9.98608 10.6924L7.20977 10.2461C7.17997 10.2413 7.15305 10.2258 7.13396 10.2024L5.23449 7.87822Z" fill="#1ECA1C"/>
<path d="M7.36931 9.95197L9.53977 10.2973C9.64271 10.3136 9.74585 10.2639 9.79872 10.1723L10.4467 9.05002C10.5022 8.9538 10.4898 8.83323 10.416 8.75237L8.82387 7.00727C8.79064 6.97086 8.74735 6.9453 8.69943 6.93381L6.67438 6.44819C6.56625 6.42226 6.45309 6.47165 6.39664 6.56943L5.71177 7.75566C5.6588 7.8474 5.66741 7.96185 5.73336 8.04282L7.21703 9.86427C7.25532 9.91128 7.30943 9.94244 7.36931 9.95197Z" fill="#1ECA1C"/>
<path d="M8.13643 8.67857C8.17591 8.61018 8.2528 8.57284 8.32974 8.5847L10.3643 8.8982C10.4077 8.90488 10.4303 8.95341 10.4081 8.99196L9.75769 10.1184C9.71821 10.1868 9.64132 10.2241 9.56438 10.2123L7.52983 9.89878C7.48646 9.8921 7.46381 9.84357 7.48607 9.80502L8.13643 8.67857Z" fill="#19AA17"/>
<path d="M8.02397 8.62346C8.06553 8.55148 8.05639 8.4613 8.00138 8.40064L6.47634 6.71889C6.44793 6.68757 6.39713 6.69353 6.37567 6.7307L5.78605 7.75194C5.74654 7.82037 5.75269 7.90569 5.80149 7.96639L7.2589 9.77912C7.28639 9.81331 7.33971 9.80864 7.36196 9.77011L8.02397 8.62346Z" fill="#19AA17"/>
<path d="M1.89652 9.40582C1.86288 9.36533 1.85827 9.30758 1.88498 9.26133L2.02396 9.02061C2.06803 8.94428 2.17331 8.93423 2.22882 9.00106L5.43376 12.86L5.15963 13.3348L1.89652 9.40582Z" fill="#1ECA1C"/>
<path d="M10.409 14.3195C10.4614 14.3294 10.5147 14.3045 10.5418 14.2576L10.6815 14.0156C10.7252 13.94 10.6825 13.8446 10.598 13.8288L5.43376 12.86L5.15963 13.3348L10.409 14.3195Z" fill="#1ECA1C"/>
<path d="M8.16693 6.50175C8.20757 6.43136 8.28767 6.39409 8.36638 6.40893L9.86252 6.69116C9.98925 6.71506 10.0531 6.85806 9.98768 6.97139L9.4589 7.88726C9.41826 7.95765 9.33816 7.99493 9.25945 7.98008L7.76331 7.69786C7.63658 7.67395 7.57272 7.53096 7.63815 7.41763L8.16693 6.50175Z" fill="#A8FDA7"/>
<path d="M8.24345 6.61909C8.28406 6.54876 8.36405 6.51149 8.44271 6.52624L9.89589 6.79878C9.98045 6.81463 10.0231 6.91002 9.97946 6.98562L9.4589 7.88726C9.41826 7.95765 9.33816 7.99493 9.25945 7.98008L7.80638 7.70771C7.72183 7.69185 7.67917 7.59647 7.72282 7.52086L8.24345 6.61909Z" fill="#1ECA1C"/>
<path d="M8.47481 7.84259L8.74291 8.22264C8.8217 8.33434 8.98981 8.32492 9.05909 8.20492L9.51662 7.41246C9.55397 7.34776 9.55068 7.26756 9.5082 7.20733L9.14161 6.68766L8.47481 7.84259Z" fill="#A8FDA7"/>
<path d="M9.40477 7.41878C9.44158 7.35502 9.43896 7.2761 9.39804 7.21608L9.09398 6.77015L8.47481 7.84259L8.73432 8.22318C8.78615 8.2992 8.89961 8.29374 8.94623 8.21299L9.40477 7.41878Z" fill="#21EB1E"/>
</g>
<g id="Vector_2">
<path d="M7.36538 15.311C7.36538 14.587 7.85615 14 8.46154 14H15.7692C16.3746 14 16.8654 14.587 16.8654 15.311L17.2308 20.2274C17.2308 20.9515 16.74 21.5385 16.1346 21.5385H8.09615C7.49077 21.5385 7 20.9515 7 20.2274L7.36538 15.311Z" fill="#1ECA1C"/>
</g>
<g id="Vector_3">
<path d="M8.09619 15.0925C8.09619 14.6555 8.48179 14.437 8.95746 14.437H15.2734C15.7491 14.437 16.1347 14.6555 16.1347 15.0925V15.9666C16.1347 16.4036 15.7491 16.6221 15.2734 16.6221H8.95746C8.27888 16.6221 8.09619 16.1764 8.09619 15.9666V15.0925Z" fill="#A8FDA7"/>
</g>
<g id="Vector_4">
<path d="M11.4368 10.477C11.2759 9.87687 11.6213 9.26288 12.2081 9.10565L20.7083 6.82804C21.2951 6.6708 21.9011 7.02986 22.0619 7.63001L23.6634 13.6067C23.8242 14.2068 23.4788 14.8208 22.892 14.978L14.3919 17.2556C13.8051 17.4129 13.199 17.0538 13.0382 16.4537L11.4368 10.477Z" fill="#21EB1E"/>
<path d="M11.2912 9.93368C11.1304 9.33353 11.4757 8.71955 12.0625 8.56231L20.5627 6.28471C21.1495 6.12747 21.7555 6.48652 21.9164 7.08667L23.5178 13.0633C23.6786 13.6635 23.3333 14.2775 22.7465 14.4347L14.2463 16.7123C13.6595 16.8695 13.0534 16.5105 12.8926 15.9103L11.2912 9.93368Z" fill="#A8FDA7"/>
<path d="M12.4993 10.1923C12.4189 9.89224 12.5915 9.58525 12.8849 9.50663L20.3226 7.51372C20.616 7.43511 20.919 7.61463 20.9994 7.91471L21.8729 11.1747C21.9533 11.4748 21.7807 11.7818 21.4873 11.8604L14.0496 13.8533C13.7562 13.9319 13.4532 13.7524 13.3728 13.4523L12.4993 10.1923Z" fill="#21EB1E"/>
<path d="M13.8095 15.0823C13.7291 14.7822 13.9018 14.4752 14.1952 14.3966L16.3203 13.8272C16.6137 13.7486 16.9167 13.9281 16.9971 14.2282C17.0775 14.5283 16.9048 14.8353 16.6114 14.9139L14.4864 15.4833C14.193 15.5619 13.89 15.3824 13.8095 15.0823Z" fill="#19AA17"/>
<path d="M17.5284 14.0859C17.448 13.7858 17.6206 13.4788 17.914 13.4002L18.9766 13.1155C19.27 13.0369 19.573 13.2164 19.6534 13.5165C19.7338 13.8165 19.5611 14.1235 19.2677 14.2021L18.2052 14.4868C17.9118 14.5655 17.6088 14.3859 17.5284 14.0859Z" fill="#19AA17"/>
<path d="M20.1847 13.3741C20.1043 13.074 20.2769 12.767 20.5703 12.6884L21.6328 12.4037C21.9263 12.3251 22.2293 12.5046 22.3097 12.8047C22.3901 13.1048 22.2174 13.4118 21.924 13.4904L20.8615 13.7751C20.5681 13.8537 20.2651 13.6742 20.1847 13.3741Z" fill="#19AA17"/>
</g>
</g>
</svg>
