<svg width="24" height="24" viewBox="0 0 24 24" fill="none" xmlns="http://www.w3.org/2000/svg">
<g id="Property 1=Keycap">
<g id="Vector">
<path d="M7.35714 7.21739C7.35714 6.54504 7.83684 6 8.42857 6H15.5714C16.1632 6 16.6429 6.54504 16.6429 7.21739L17 11.7826C17 12.455 16.5203 13 15.9286 13H8.07143C7.4797 13 7 12.455 7 11.7826L7.35714 7.21739Z" fill="#1ECA1C"/>
<path d="M8.07143 7.01449C8.07143 6.6087 8.44833 6.4058 8.91327 6.4058H15.0867C15.5517 6.4058 15.9286 6.6087 15.9286 7.01449V7.82609C15.9286 8.23188 15.5517 8.43478 15.0867 8.43478H8.91327C8.25 8.43478 8.07143 8.02097 8.07143 7.82609V7.01449Z" fill="#A8FDA7"/>
<path d="M1.86538 12.311C1.86538 11.587 2.35615 11 2.96154 11H10.2692C10.8746 11 11.3654 11.587 11.3654 12.311L11.7308 17.2274C11.7308 17.9515 11.24 18.5385 10.6346 18.5385H2.59615C1.99076 18.5385 1.5 17.9515 1.5 17.2274L1.86538 12.311Z" fill="#1ECA1C"/>
<path d="M2.59615 12.0925C2.59615 11.6555 2.98175 11.437 3.45742 11.437H9.77335C10.249 11.437 10.6346 11.6555 10.6346 12.0925V12.9666C10.6346 13.4036 10.249 13.6221 9.77335 13.6221H3.45742C2.77885 13.6221 2.59615 13.1764 2.59615 12.9666V12.0925Z" fill="#A8FDA7"/>
<path d="M12.6344 12.311C12.6344 11.587 13.1252 11 13.7306 11H21.0383C21.6437 11 22.1344 11.587 22.1344 12.311L22.4998 17.2274C22.4998 17.9515 22.009 18.5385 21.4037 18.5385H13.3652C12.7598 18.5385 12.269 17.9515 12.269 17.2274L12.6344 12.311Z" fill="#1ECA1C"/>
<path d="M13.3652 12.0925C13.3652 11.6555 13.7508 11.437 14.2265 11.437H20.5424C21.0181 11.437 21.4037 11.6555 21.4037 12.0925V12.9666C21.4037 13.4036 21.0181 13.6221 20.5424 13.6221H14.2265C13.5479 13.6221 13.3652 13.1764 13.3652 12.9666V12.0925Z" fill="#A8FDA7"/>
<path d="M7.36538 16.311C7.36538 15.587 7.85615 15 8.46154 15H15.7692C16.3746 15 16.8654 15.587 16.8654 16.311L17.2308 21.2274C17.2308 21.9515 16.74 22.5385 16.1346 22.5385H8.09615C7.49077 22.5385 7 21.9515 7 21.2274L7.36538 16.311Z" fill="#1ECA1C"/>
<path d="M8.09615 16.0925C8.09615 15.6555 8.48176 15.437 8.95742 15.437H15.2734C15.749 15.437 16.1346 15.6555 16.1346 16.0925V16.9666C16.1346 17.4036 15.749 17.6221 15.2734 17.6221H8.95742C8.27885 17.6221 8.09615 17.1764 8.09615 16.9666V16.0925Z" fill="#A8FDA7"/>
</g>
</g>
</svg>
