<svg width="24" height="24" viewBox="0 0 24 24" fill="none" xmlns="http://www.w3.org/2000/svg">
<g id="Property 1=Kit">
<g id="Vector">
<path d="M1.5 7.25C1.5 6.00736 2.50736 5 3.75 5H20.25C21.4926 5 22.5 6.00736 22.5 7.25V15.6875C22.5 16.9301 21.4926 17.9375 20.25 17.9375H3.75C2.50736 17.9375 1.5 16.9301 1.5 15.6875V7.25Z" fill="#A8FDA7"/>
<path d="M3 9.125C3 8.91789 3.16789 8.75 3.375 8.75H4.125C4.33211 8.75 4.5 8.91789 4.5 9.125V9.875C4.5 10.0821 4.33211 10.25 4.125 10.25H3.375C3.16789 10.25 3 10.0821 3 9.875V9.125ZM5.625 14C5.41789 14 5.25 14.1679 5.25 14.375V15.125C5.25 15.3321 5.41789 15.5 5.625 15.5H6.375C6.58211 15.5 6.75 15.3321 6.75 15.125V14.375C6.75 14.1679 6.58211 14 6.375 14H5.625ZM17.625 14C17.4179 14 17.25 14.1679 17.25 14.375V15.125C17.25 15.3321 17.4179 15.5 17.625 15.5H18.375C18.5821 15.5 18.75 15.3321 18.75 15.125V14.375C18.75 14.1679 18.5821 14 18.375 14H17.625ZM7.5 14.375C7.5 14.1679 7.66789 14 7.875 14H16.125C16.3321 14 16.5 14.1679 16.5 14.375V15.125C16.5 15.3321 16.3321 15.5 16.125 15.5H7.875C7.66789 15.5 7.5 15.3321 7.5 15.125V14.375ZM1.5 17V15.5C1.5 16.7426 2.50736 17.75 3.75 17.75H20.25C21.4926 17.75 22.5 16.7426 22.5 15.5V17C22.5 18.2426 21.4926 19.25 20.25 19.25H3.75C2.50736 19.25 1.5 18.2426 1.5 17Z" fill="#1ECA1C"/>
<path d="M5.25 9.125C5.25 8.91789 5.41789 8.75 5.625 8.75H6.375C6.58211 8.75 6.75 8.91789 6.75 9.125V9.875C6.75 10.0821 6.58211 10.25 6.375 10.25H5.625C5.41789 10.25 5.25 10.0821 5.25 9.875V9.125Z" fill="#1ECA1C"/>
<path d="M7.5 9.125C7.5 8.91789 7.66789 8.75 7.875 8.75H8.625C8.83211 8.75 9 8.91789 9 9.125V9.875C9 10.0821 8.83211 10.25 8.625 10.25H7.875C7.66789 10.25 7.5 10.0821 7.5 9.875V9.125Z" fill="#1ECA1C"/>
<path d="M9.75 9.125C9.75 8.91789 9.91789 8.75 10.125 8.75H10.875C11.0821 8.75 11.25 8.91789 11.25 9.125V9.875C11.25 10.0821 11.0821 10.25 10.875 10.25H10.125C9.91789 10.25 9.75 10.0821 9.75 9.875V9.125Z" fill="#1ECA1C"/>
<path d="M12 9.125C12 8.91789 12.1679 8.75 12.375 8.75H13.125C13.3321 8.75 13.5 8.91789 13.5 9.125V9.875C13.5 10.0821 13.3321 10.25 13.125 10.25H12.375C12.1679 10.25 12 10.0821 12 9.875V9.125Z" fill="#1ECA1C"/>
<path d="M5.25 9.125C5.25 8.91789 5.41789 8.75 5.625 8.75H6.375C6.58211 8.75 6.75 8.91789 6.75 9.125V9.875C6.75 10.0821 6.58211 10.25 6.375 10.25H5.625C5.41789 10.25 5.25 10.0821 5.25 9.875V9.125Z" fill="#1ECA1C"/>
<path d="M7.5 9.125C7.5 8.91789 7.66789 8.75 7.875 8.75H8.625C8.83211 8.75 9 8.91789 9 9.125V9.875C9 10.0821 8.83211 10.25 8.625 10.25H7.875C7.66789 10.25 7.5 10.0821 7.5 9.875V9.125Z" fill="#1ECA1C"/>
<path d="M9.75 9.125C9.75 8.91789 9.91789 8.75 10.125 8.75H10.875C11.0821 8.75 11.25 8.91789 11.25 9.125V9.875C11.25 10.0821 11.0821 10.25 10.875 10.25H10.125C9.91789 10.25 9.75 10.0821 9.75 9.875V9.125Z" fill="#1ECA1C"/>
<path d="M12 9.125C12 8.91789 12.1679 8.75 12.375 8.75H13.125C13.3321 8.75 13.5 8.91789 13.5 9.125V9.875C13.5 10.0821 13.3321 10.25 13.125 10.25H12.375C12.1679 10.25 12 10.0821 12 9.875V9.125Z" fill="#1ECA1C"/>
<path d="M14.25 9.125C14.25 8.91789 14.4179 8.75 14.625 8.75H15.375C15.5821 8.75 15.75 8.91789 15.75 9.125V9.875C15.75 10.0821 15.5821 10.25 15.375 10.25H14.625C14.4179 10.25 14.25 10.0821 14.25 9.875V9.125Z" fill="#1ECA1C"/>
<path d="M16.5 9.125C16.5 8.91789 16.6679 8.75 16.875 8.75H17.625C17.8321 8.75 18 8.91789 18 9.125V9.875C18 10.0821 17.8321 10.25 17.625 10.25H16.875C16.6679 10.25 16.5 10.0821 16.5 9.875V9.125Z" fill="#1ECA1C"/>
<path d="M18.75 9.125C18.75 8.91789 18.9179 8.75 19.125 8.75H19.875C20.0821 8.75 20.25 8.91789 20.25 9.125V9.875C20.25 10.0821 20.0821 10.25 19.875 10.25H19.125C18.9179 10.25 18.75 10.0821 18.75 9.875V9.125Z" fill="#1ECA1C"/>
<path d="M14.25 9.125C14.25 8.91789 14.4179 8.75 14.625 8.75H15.375C15.5821 8.75 15.75 8.91789 15.75 9.125V9.875C15.75 10.0821 15.5821 10.25 15.375 10.25H14.625C14.4179 10.25 14.25 10.0821 14.25 9.875V9.125Z" fill="#1ECA1C"/>
<path d="M16.5 9.125C16.5 8.91789 16.6679 8.75 16.875 8.75H17.625C17.8321 8.75 18 8.91789 18 9.125V9.875C18 10.0821 17.8321 10.25 17.625 10.25H16.875C16.6679 10.25 16.5 10.0821 16.5 9.875V9.125Z" fill="#1ECA1C"/>
<path d="M18.75 9.125C18.75 8.91789 18.9179 8.75 19.125 8.75H19.875C20.0821 8.75 20.25 8.91789 20.25 9.125V9.875C20.25 10.0821 20.0821 10.25 19.875 10.25H19.125C18.9179 10.25 18.75 10.0821 18.75 9.875V9.125Z" fill="#1ECA1C"/>
<path d="M5.25 11.375C5.25 11.1679 5.41789 11 5.625 11H6.375C6.58211 11 6.75 11.1679 6.75 11.375V12.125C6.75 12.3321 6.58211 12.5 6.375 12.5H5.625C5.41789 12.5 5.25 12.3321 5.25 12.125V11.375Z" fill="#1ECA1C"/>
<path d="M7.5 11.375C7.5 11.1679 7.66789 11 7.875 11H8.625C8.83211 11 9 11.1679 9 11.375V12.125C9 12.3321 8.83211 12.5 8.625 12.5H7.875C7.66789 12.5 7.5 12.3321 7.5 12.125V11.375Z" fill="#1ECA1C"/>
<path d="M9.75 11.375C9.75 11.1679 9.91789 11 10.125 11H10.875C11.0821 11 11.25 11.1679 11.25 11.375V12.125C11.25 12.3321 11.0821 12.5 10.875 12.5H10.125C9.91789 12.5 9.75 12.3321 9.75 12.125V11.375Z" fill="#1ECA1C"/>
<path d="M12 11.375C12 11.1679 12.1679 11 12.375 11H13.125C13.3321 11 13.5 11.1679 13.5 11.375V12.125C13.5 12.3321 13.3321 12.5 13.125 12.5H12.375C12.1679 12.5 12 12.3321 12 12.125V11.375Z" fill="#1ECA1C"/>
<path d="M5.25 11.375C5.25 11.1679 5.41789 11 5.625 11H6.375C6.58211 11 6.75 11.1679 6.75 11.375V12.125C6.75 12.3321 6.58211 12.5 6.375 12.5H5.625C5.41789 12.5 5.25 12.3321 5.25 12.125V11.375Z" fill="#1ECA1C"/>
<path d="M7.5 11.375C7.5 11.1679 7.66789 11 7.875 11H8.625C8.83211 11 9 11.1679 9 11.375V12.125C9 12.3321 8.83211 12.5 8.625 12.5H7.875C7.66789 12.5 7.5 12.3321 7.5 12.125V11.375Z" fill="#1ECA1C"/>
<path d="M9.75 11.375C9.75 11.1679 9.91789 11 10.125 11H10.875C11.0821 11 11.25 11.1679 11.25 11.375V12.125C11.25 12.3321 11.0821 12.5 10.875 12.5H10.125C9.91789 12.5 9.75 12.3321 9.75 12.125V11.375Z" fill="#1ECA1C"/>
<path d="M12 11.375C12 11.1679 12.1679 11 12.375 11H13.125C13.3321 11 13.5 11.1679 13.5 11.375V12.125C13.5 12.3321 13.3321 12.5 13.125 12.5H12.375C12.1679 12.5 12 12.3321 12 12.125V11.375Z" fill="#1ECA1C"/>
<path d="M14.25 11.375C14.25 11.1679 14.4179 11 14.625 11H15.375C15.5821 11 15.75 11.1679 15.75 11.375V12.125C15.75 12.3321 15.5821 12.5 15.375 12.5H14.625C14.4179 12.5 14.25 12.3321 14.25 12.125V11.375Z" fill="#1ECA1C"/>
<path d="M16.5 11.375C16.5 11.1679 16.6679 11 16.875 11H17.625C17.8321 11 18 11.1679 18 11.375V12.125C18 12.3321 17.8321 12.5 17.625 12.5H16.875C16.6679 12.5 16.5 12.3321 16.5 12.125V11.375Z" fill="#1ECA1C"/>
<path d="M18.75 11.375C18.75 11.1679 18.9179 11 19.125 11H19.875C20.0821 11 20.25 11.1679 20.25 11.375V12.125C20.25 12.3321 20.0821 12.5 19.875 12.5H19.125C18.9179 12.5 18.75 12.3321 18.75 12.125V11.375Z" fill="#1ECA1C"/>
<path d="M14.25 11.375C14.25 11.1679 14.4179 11 14.625 11H15.375C15.5821 11 15.75 11.1679 15.75 11.375V12.125C15.75 12.3321 15.5821 12.5 15.375 12.5H14.625C14.4179 12.5 14.25 12.3321 14.25 12.125V11.375Z" fill="#1ECA1C"/>
<path d="M16.5 11.375C16.5 11.1679 16.6679 11 16.875 11H17.625C17.8321 11 18 11.1679 18 11.375V12.125C18 12.3321 17.8321 12.5 17.625 12.5H16.875C16.6679 12.5 16.5 12.3321 16.5 12.125V11.375Z" fill="#1ECA1C"/>
<path d="M18.75 11.375C18.75 11.1679 18.9179 11 19.125 11H19.875C20.0821 11 20.25 11.1679 20.25 11.375V12.125C20.25 12.3321 20.0821 12.5 19.875 12.5H19.125C18.9179 12.5 18.75 12.3321 18.75 12.125V11.375Z" fill="#1ECA1C"/>
<path d="M3 11.375C3 11.1679 3.16789 11 3.375 11H4.125C4.33211 11 4.5 11.1679 4.5 11.375V12.125C4.5 12.3321 4.33211 12.5 4.125 12.5H3.375C3.16789 12.5 3 12.3321 3 12.125V11.375Z" fill="#1ECA1C"/>
<path d="M3 11.375C3 11.1679 3.16789 11 3.375 11H4.125C4.33211 11 4.5 11.1679 4.5 11.375V12.125C4.5 12.3321 4.33211 12.5 4.125 12.5H3.375C3.16789 12.5 3 12.3321 3 12.125V11.375Z" fill="#1ECA1C"/>
<path d="M18.75 6.875C18.75 6.66789 18.9179 6.5 19.125 6.5H19.875C20.0821 6.5 20.25 6.66789 20.25 6.875C20.25 7.08211 20.0821 7.25 19.875 7.25H19.125C18.9179 7.25 18.75 7.08211 18.75 6.875Z" fill="#1ECA1C"/>
<path d="M18.75 6.875C18.75 6.66789 18.9179 6.5 19.125 6.5H19.875C20.0821 6.5 20.25 6.66789 20.25 6.875C20.25 7.08211 20.0821 7.25 19.875 7.25H19.125C18.9179 7.25 18.75 7.08211 18.75 6.875Z" fill="#1ECA1C"/>
<path d="M16.5 6.875C16.5 6.66789 16.6679 6.5 16.875 6.5H17.625C17.8321 6.5 18 6.66789 18 6.875C18 7.08211 17.8321 7.25 17.625 7.25H16.875C16.6679 7.25 16.5 7.08211 16.5 6.875Z" fill="#1ECA1C"/>
<path d="M16.5 6.875C16.5 6.66789 16.6679 6.5 16.875 6.5H17.625C17.8321 6.5 18 6.66789 18 6.875C18 7.08211 17.8321 7.25 17.625 7.25H16.875C16.6679 7.25 16.5 7.08211 16.5 6.875Z" fill="#1ECA1C"/>
<path d="M14.25 6.875C14.25 6.66789 14.4179 6.5 14.625 6.5H15.375C15.5821 6.5 15.75 6.66789 15.75 6.875C15.75 7.08211 15.5821 7.25 15.375 7.25H14.625C14.4179 7.25 14.25 7.08211 14.25 6.875Z" fill="#1ECA1C"/>
<path d="M14.25 6.875C14.25 6.66789 14.4179 6.5 14.625 6.5H15.375C15.5821 6.5 15.75 6.66789 15.75 6.875C15.75 7.08211 15.5821 7.25 15.375 7.25H14.625C14.4179 7.25 14.25 7.08211 14.25 6.875Z" fill="#1ECA1C"/>
<path d="M12 6.875C12 6.66789 12.1679 6.5 12.375 6.5H13.125C13.3321 6.5 13.5 6.66789 13.5 6.875C13.5 7.08211 13.3321 7.25 13.125 7.25H12.375C12.1679 7.25 12 7.08211 12 6.875Z" fill="#1ECA1C"/>
<path d="M12 6.875C12 6.66789 12.1679 6.5 12.375 6.5H13.125C13.3321 6.5 13.5 6.66789 13.5 6.875C13.5 7.08211 13.3321 7.25 13.125 7.25H12.375C12.1679 7.25 12 7.08211 12 6.875Z" fill="#1ECA1C"/>
<path d="M9.75 6.875C9.75 6.66789 9.91789 6.5 10.125 6.5H10.875C11.0821 6.5 11.25 6.66789 11.25 6.875C11.25 7.08211 11.0821 7.25 10.875 7.25H10.125C9.91789 7.25 9.75 7.08211 9.75 6.875Z" fill="#1ECA1C"/>
<path d="M9.75 6.875C9.75 6.66789 9.91789 6.5 10.125 6.5H10.875C11.0821 6.5 11.25 6.66789 11.25 6.875C11.25 7.08211 11.0821 7.25 10.875 7.25H10.125C9.91789 7.25 9.75 7.08211 9.75 6.875Z" fill="#1ECA1C"/>
<path d="M7.5 6.875C7.5 6.66789 7.66789 6.5 7.875 6.5H8.625C8.83211 6.5 9 6.66789 9 6.875C9 7.08211 8.83211 7.25 8.625 7.25H7.875C7.66789 7.25 7.5 7.08211 7.5 6.875Z" fill="#1ECA1C"/>
<path d="M7.5 6.875C7.5 6.66789 7.66789 6.5 7.875 6.5H8.625C8.83211 6.5 9 6.66789 9 6.875C9 7.08211 8.83211 7.25 8.625 7.25H7.875C7.66789 7.25 7.5 7.08211 7.5 6.875Z" fill="#1ECA1C"/>
<path d="M5.25 6.875C5.25 6.66789 5.41789 6.5 5.625 6.5H6.375C6.58211 6.5 6.75 6.66789 6.75 6.875C6.75 7.08211 6.58211 7.25 6.375 7.25H5.625C5.41789 7.25 5.25 7.08211 5.25 6.875Z" fill="#1ECA1C"/>
<path d="M5.25 6.875C5.25 6.66789 5.41789 6.5 5.625 6.5H6.375C6.58211 6.5 6.75 6.66789 6.75 6.875C6.75 7.08211 6.58211 7.25 6.375 7.25H5.625C5.41789 7.25 5.25 7.08211 5.25 6.875Z" fill="#1ECA1C"/>
<path d="M3 6.875C3 6.66789 3.16789 6.5 3.375 6.5H4.125C4.33211 6.5 4.5 6.66789 4.5 6.875C4.5 7.08211 4.33211 7.25 4.125 7.25H3.375C3.16789 7.25 3 7.08211 3 6.875Z" fill="#1ECA1C"/>
<path d="M3 6.875C3 6.66789 3.16789 6.5 3.375 6.5H4.125C4.33211 6.5 4.5 6.66789 4.5 6.875C4.5 7.08211 4.33211 7.25 4.125 7.25H3.375C3.16789 7.25 3 7.08211 3 6.875Z" fill="#1ECA1C"/>
</g>
</g>
</svg>
