<svg width="24" height="24" viewBox="0 0 24 24" fill="none" xmlns="http://www.w3.org/2000/svg">
<g id="Property 1=Parts">
<g id="Vector">
<path d="M2 8C2 6.89543 2.89543 6 4 6H20C21.1046 6 22 6.89543 22 8V19C22 20.1046 21.1046 21 20 21H4C2.89543 21 2 20.1046 2 19V8Z" fill="#21EB1E"/>
<path d="M2 7C2 5.89543 2.89543 5 4 5H20C21.1046 5 22 5.89543 22 7V18C22 19.1046 21.1046 20 20 20H4C2.89543 20 2 19.1046 2 18V7Z" fill="#A8FDA7"/>
<path d="M4 8C4 7.44772 4.44772 7 5 7H19C19.5523 7 20 7.44772 20 8V14C20 14.5523 19.5523 15 19 15H5C4.44772 15 4 14.5523 4 14V8Z" fill="#21EB1E"/>
<path d="M4 17C4 16.4477 4.44772 16 5 16H9C9.55228 16 10 16.4477 10 17C10 17.5523 9.55228 18 9 18H5C4.44772 18 4 17.5523 4 17Z" fill="#19AA17"/>
<path d="M11 17C11 16.4477 11.4477 16 12 16H14C14.5523 16 15 16.4477 15 17C15 17.5523 14.5523 18 14 18H12C11.4477 18 11 17.5523 11 17Z" fill="#19AA17"/>
<path d="M16 17C16 16.4477 16.4477 16 17 16H19C19.5523 16 20 16.4477 20 17C20 17.5523 19.5523 18 19 18H17C16.4477 18 16 17.5523 16 17Z" fill="#19AA17"/>
</g>
</g>
</svg>
