<svg width="24" height="24" viewBox="0 0 24 24" fill="none" xmlns="http://www.w3.org/2000/svg">
<g id="Property 1=Stab">
<g id="Vector">
<path d="M9.96006 5.84567C9.95964 5.6987 9.60364 5.56801 9.44237 5.51969L5.88799 4.34962C5.80069 4.32346 3.76758 3.85021 3.76781 3.92976L3.76767 10.6467C3.768 10.7589 3.76772 11.008 3.96773 11.3011C4.10105 11.4965 4.31564 11.6277 4.53505 11.7383L9.00558 13.9923L9.44209 13.5888C9.87859 13.1853 9.96029 13.1546 9.95998 12.9687L9.96006 5.84567Z" fill="#A8FDA7"/>
<path d="M9.08725 6.65259C9.08682 6.50562 8.73083 6.37494 8.56955 6.32661L5.01518 5.15654C4.92788 5.13038 3.76778 5.46404 3.76801 5.54359L3.76787 12.2606C3.76795 12.2879 3.76799 12.3091 3.7709 12.3282C3.83133 12.7256 4.42223 12.8421 4.83826 12.9569L8.49626 13.9671C8.58811 13.9925 8.68412 14.0051 8.77968 13.9981C9.02804 13.98 9.08743 13.9343 9.08716 13.7756L9.08725 6.65259Z" fill="#0E8C0C"/>
<path d="M7.22674 11.1505L9.76291 10.0549C9.90859 9.99202 10.0004 9.86361 10 9.72337L9.98467 4.38871C9.9842 4.22695 9.86163 4.08426 9.68206 4.03645L6.11276 3.08616C5.92635 3.03652 5.72587 2.96225 5.54318 3.02255L5.53807 3.02432L3.26238 3.85323C3.10299 3.91129 2.99957 4.04594 3 4.19486L3.01539 9.54918C3.01583 9.70342 3.12747 9.84119 3.29549 9.89485L7.22674 11.1505Z" fill="#A8FDA7"/>
<path d="M7.34036 5.7473C7.34007 5.6484 7.25576 5.61855 7.35503 5.56868L9.71584 4.38292C9.78737 4.34699 9.87722 4.39125 9.87743 4.4625L9.89257 9.72679C9.89287 9.83185 9.82417 9.92806 9.7151 9.97532L7.36552 10.9933C7.29417 11.0242 7.35523 10.918 7.35503 10.8492L7.34036 5.7473Z" fill="#1ECA1C"/>
<path d="M7.00986 5.79981C7.00952 5.68206 7.0006 5.57737 6.87139 5.53865L3.25126 4.45399C3.18132 4.43303 3.10826 4.47783 3.10844 4.54157L3.12285 9.54892C3.12318 9.66544 3.20812 9.76934 3.33545 9.80897L6.95813 10.9364C7.02829 10.9583 7.02457 10.9134 7.02438 10.8492L7.00986 5.79981Z" fill="#1ECA1C"/>
<path d="M7.00601 5.7126C7.00567 5.59485 6.72046 5.49015 6.59125 5.45143L3.8282 4.62685C3.75826 4.6059 3.52855 4.6507 3.52874 4.71443L3.54314 9.72178C3.54348 9.8383 3.78507 9.9422 3.9124 9.98183L6.67799 10.8492C7.10191 11.0134 7.02079 10.9109 7.02054 10.762L7.00601 5.7126Z" fill="#0E8C0C"/>
<path d="M4.15727 7.51188L3.90976 8.04171C3.83702 8.19742 3.94884 8.3762 4.12007 8.37796L5.25091 8.38961C5.34323 8.39056 5.42769 8.33726 5.46691 8.25331L5.80535 7.52885L4.15727 7.51188Z" fill="#A8FDA7"/>
<path d="M5.32939 8.39041C5.42171 8.39136 5.50617 8.33807 5.54539 8.25411L5.88383 7.52966L4.31423 7.5135L4.01494 8.15415C3.96645 8.25796 4.041 8.37715 4.15515 8.37832L5.32939 8.39041Z" fill="#21EB1E"/>
<path d="M4.62576 8.61948C4.52531 8.61844 4.4367 8.55357 4.4051 8.45793L3.80451 6.64005C3.75363 6.48607 3.86914 6.32737 4.03086 6.32904L5.33781 6.34249C5.43826 6.34353 5.52687 6.4084 5.55847 6.50404L6.15906 8.32192C6.20993 8.4759 6.09443 8.6346 5.93271 8.63293L4.62576 8.61948Z" fill="#A8FDA7"/>
<path d="M4.70596 8.46277C4.6056 8.46173 4.51704 8.39697 4.48538 8.30145L3.90032 6.53674C3.86627 6.43406 3.94328 6.32814 4.05117 6.32925L5.33781 6.34249C5.43826 6.34353 5.52687 6.4084 5.55847 6.50404L6.14363 8.26852C6.17768 8.3712 6.10067 8.47712 5.99278 8.47601L4.70596 8.46277Z" fill="#1ECA1C"/>
<path d="M5.88478 7.4509L6.13229 6.92108C6.20503 6.76536 6.09321 6.58658 5.92198 6.58482L4.79114 6.57317C4.69882 6.57222 4.61436 6.62552 4.57514 6.70947L4.2367 7.43393L5.88478 7.4509Z" fill="#A8FDA7"/>
<path d="M4.86559 6.69209C4.7746 6.69116 4.69113 6.74292 4.65119 6.82504L4.35442 7.43514L5.88478 7.4509L6.13806 6.93017C6.18865 6.82618 6.11415 6.70495 5.99893 6.70376L4.86559 6.69209Z" fill="#21EB1E"/>
<path d="M20.9601 9.84567C20.9596 9.6987 20.6036 9.56801 20.4424 9.51969L16.888 8.34962C16.8007 8.32346 14.7676 7.85021 14.7678 7.92976L14.7677 14.6467C14.768 14.7589 14.7677 15.008 14.9677 15.3011C15.101 15.4965 15.3156 15.6277 15.5351 15.7383L20.0056 17.9923L20.4421 17.5888C20.8786 17.1853 20.9603 17.1546 20.96 16.9687L20.9601 9.84567Z" fill="#A8FDA7"/>
<path d="M20.0872 10.6526C20.0868 10.5056 19.7308 10.3749 19.5696 10.3266L16.0152 9.15654C15.9279 9.13038 14.7678 9.46404 14.768 9.54359L14.7679 16.2606C14.7679 16.2879 14.768 16.3091 14.7709 16.3282C14.8313 16.7256 15.4222 16.8421 15.8383 16.9569L19.4963 17.9671C19.5881 17.9925 19.6841 18.0051 19.7797 17.9981C20.028 17.98 20.0874 17.9343 20.0872 17.7756L20.0872 10.6526Z" fill="#0E8C0C"/>
<path d="M18.2267 15.1505L20.7629 14.0549C20.9086 13.992 21.0004 13.8636 21 13.7234L20.9847 8.38871C20.9842 8.22695 20.8616 8.08426 20.6821 8.03645L17.1128 7.08616C16.9264 7.03652 16.7259 6.96225 16.5432 7.02255L16.5381 7.02432L14.2624 7.85323C14.103 7.91129 13.9996 8.04594 14 8.19486L14.0154 13.5492C14.0158 13.7034 14.1275 13.8412 14.2955 13.8949L18.2267 15.1505Z" fill="#A8FDA7"/>
<path d="M18.3404 9.7473C18.3401 9.6484 18.2558 9.61855 18.355 9.56868L20.7158 8.38292C20.7874 8.34699 20.8772 8.39125 20.8774 8.4625L20.8926 13.7268C20.8929 13.8318 20.8242 13.9281 20.7151 13.9753L18.3655 14.9933C18.2942 15.0242 18.3552 14.918 18.355 14.8492L18.3404 9.7473Z" fill="#1ECA1C"/>
<path d="M18.0099 9.79981C18.0095 9.68206 18.0006 9.57737 17.8714 9.53865L14.2513 8.45399C14.1813 8.43303 14.1083 8.47783 14.1084 8.54157L14.1228 13.5489C14.1232 13.6654 14.2081 13.7693 14.3355 13.809L17.9581 14.9364C18.0283 14.9583 18.0246 14.9134 18.0244 14.8492L18.0099 9.79981Z" fill="#1ECA1C"/>
<path d="M18.006 9.7126C18.0057 9.59485 17.7205 9.49015 17.5912 9.45143L14.8282 8.62685C14.7583 8.6059 14.5286 8.6507 14.5287 8.71443L14.5431 13.7218C14.5435 13.8383 14.7851 13.9422 14.9124 13.9818L17.678 14.8492C18.1019 15.0134 18.0208 14.9109 18.0205 14.762L18.006 9.7126Z" fill="#0E8C0C"/>
<path d="M15.1573 11.5119L14.9098 12.0417C14.837 12.1974 14.9488 12.3762 15.1201 12.378L16.2509 12.3896C16.3432 12.3906 16.4277 12.3373 16.4669 12.2533L16.8053 11.5288L15.1573 11.5119Z" fill="#A8FDA7"/>
<path d="M16.3294 12.3904C16.4217 12.3914 16.5062 12.3381 16.5454 12.2541L16.8838 11.5297L15.3142 11.5135L15.0149 12.1542C14.9664 12.258 15.041 12.3771 15.1552 12.3783L16.3294 12.3904Z" fill="#21EB1E"/>
<path d="M15.6258 12.6195C15.5253 12.6184 15.4367 12.5536 15.4051 12.4579L14.8045 10.6401C14.7536 10.4861 14.8691 10.3274 15.0309 10.329L16.3378 10.3425C16.4383 10.3435 16.5269 10.4084 16.5585 10.504L17.1591 12.3219C17.2099 12.4759 17.0944 12.6346 16.9327 12.6329L15.6258 12.6195Z" fill="#A8FDA7"/>
<path d="M15.706 12.4628C15.6056 12.4617 15.517 12.397 15.4854 12.3015L14.9003 10.5367C14.8663 10.4341 14.9433 10.3281 15.0512 10.3292L16.3378 10.3425C16.4383 10.3435 16.5269 10.4084 16.5585 10.504L17.1436 12.2685C17.1777 12.3712 17.1007 12.4771 16.9928 12.476L15.706 12.4628Z" fill="#1ECA1C"/>
<path d="M16.8848 11.4509L17.1323 10.9211C17.205 10.7654 17.0932 10.5866 16.922 10.5848L15.7911 10.5732C15.6988 10.5722 15.6144 10.6255 15.5751 10.7095L15.2367 11.4339L16.8848 11.4509Z" fill="#A8FDA7"/>
<path d="M15.8656 10.6921C15.7746 10.6912 15.6911 10.7429 15.6512 10.825L15.3544 11.4351L16.8848 11.4509L17.1381 10.9302C17.1887 10.8262 17.1142 10.7049 16.9989 10.7038L15.8656 10.6921Z" fill="#21EB1E"/>
<path fill-rule="evenodd" clip-rule="evenodd" d="M5.35 10.553V15.5585C5.35 16.2687 5.80446 16.8992 6.47822 17.1238L14.4782 19.7905C15.5466 20.1466 16.65 19.3514 16.65 18.2252V14.6571L17.35 14.8581V18.2252C17.35 19.8292 15.7786 20.9618 14.2569 20.4546L6.25687 17.7879C5.29726 17.468 4.65 16.57 4.65 15.5585V10.3303L5.35 10.553Z" fill="#72FF70"/>
</g>
</g>
</svg>
