<svg width="24" height="24" viewBox="0 0 24 24" fill="none" xmlns="http://www.w3.org/2000/svg">
<g id="Property 1=Switch">
<g id="Vector">
<path d="M11.8875 3.54832L11.1272 3.19699C10.9037 3.09374 10.65 3.2598 10.65 3.50933V5.15721C10.65 5.29175 10.7274 5.41388 10.8478 5.46955L11.8875 5.94995V3.54832Z" fill="#A8FDA7"/>
<path d="M10.65 5.27158C10.65 5.40612 10.7274 5.52824 10.8478 5.58391L11.8875 6.06431V3.77705L10.9681 3.35222C10.8191 3.28339 10.65 3.3941 10.65 3.56045V5.27158Z" fill="#21EB1E"/>
<path d="M12.1442 20.9589L18.3156 18.8677C18.5211 18.7981 18.6893 18.6455 18.7806 18.4459L20.4448 14.8086C20.6116 14.444 20.2677 14.0537 19.8929 14.1823L12.0342 16.8785C11.9391 16.9111 11.8361 16.9105 11.7414 16.8767L4.05883 14.1382C3.71178 14.0145 3.37323 14.3433 3.4789 14.7014L4.46016 18.0264C4.53234 18.271 4.71496 18.4659 4.95176 18.5511L11.6324 20.9541C11.7977 21.0136 11.9778 21.0153 12.1442 20.9589Z" fill="#A8FDA7"/>
<path d="M11.7414 16.8767L3.73111 14.0214C3.46708 13.9273 3.35065 13.6137 3.48769 13.3657L5.88916 9.02027C5.98464 8.84749 6.13978 8.71686 6.32455 8.65365L11.6363 6.83643C11.7993 6.78067 11.9757 6.78067 12.1387 6.83643L17.4716 8.66087C17.6436 8.71971 17.7903 8.83713 17.8869 8.99326L20.5833 13.3496C20.7384 13.6001 20.6222 13.932 20.3464 14.0267L12.0342 16.8785C11.9391 16.9111 11.8361 16.9105 11.7414 16.8767Z" fill="#A8FDA7"/>
<path d="M20.0086 14.1066L12.7309 16.6024C12.4323 16.7048 12.1254 16.4716 12.1374 16.1515L12.3036 11.7179C12.3156 11.3968 12.5154 11.1142 12.8109 11.0001L16.9942 9.38481C17.3448 9.24946 17.7405 9.38413 17.9403 9.7067L20.2456 13.4295C20.4008 13.68 20.2845 14.012 20.0086 14.1066Z" fill="#21EB1E"/>
<path d="M12.4302 17.0815L19.9375 14.4722C20.1252 14.407 20.298 14.6026 20.2142 14.7853L18.6786 18.1338C18.5893 18.3283 18.4269 18.4783 18.2279 18.55L12.6845 20.5474C12.4703 20.6246 12.2438 20.4688 12.2345 20.238L12.1262 17.533C12.1181 17.3307 12.2417 17.147 12.4302 17.0815Z" fill="#21EB1E"/>
<path d="M6.97849 9.03758C6.77892 8.962 6.78475 8.67302 6.9872 8.60582L11.8162 7.00288C11.8625 6.98752 11.9124 6.98783 11.9585 7.00376L16.9165 8.71739C17.1166 8.78655 17.1209 9.07266 16.923 9.1481L12.1912 10.9519C12.1405 10.9713 12.0845 10.9713 12.0337 10.9521L6.97849 9.03758Z" fill="#1ECA1C"/>
<path d="M12.1752 10.3495L15.8712 8.9337C16.0465 8.86655 16.1625 8.69605 16.1625 8.50563V6.1719C16.1625 5.97182 16.0346 5.79495 15.8467 5.73527L11.7922 4.44726C11.7076 4.42039 11.6171 4.41951 11.532 4.44474L7.9365 5.5108C7.7445 5.56772 7.6125 5.74664 7.6125 5.94995V8.41668C7.6125 8.60746 7.72897 8.77821 7.90473 8.84509L11.8588 10.3499C11.9608 10.3887 12.0732 10.3886 12.1752 10.3495Z" fill="#1ECA1C"/>
<path d="M12.225 7.6728C12.225 7.5306 12.3113 7.40313 12.442 7.35234L15.8973 6.00929C15.971 5.98067 16.05 6.03595 16.05 6.11612V8.45854C16.05 8.60074 15.9637 8.72821 15.833 8.779L12.3777 10.122C12.304 10.1507 12.225 10.0954 12.225 10.0152V7.6728Z" fill="#19AA17"/>
<path d="M12 7.68812C12 7.53843 11.9045 7.40603 11.7641 7.36095L7.87138 6.1113C7.79887 6.08803 7.725 6.14306 7.725 6.22036V8.344C7.725 8.48629 7.8114 8.61382 7.94218 8.66455L11.8474 10.1794C11.921 10.2079 12 10.1527 12 10.0725V7.68812Z" fill="#19AA17"/>
<path d="M3.1481 14.4256C3.05919 14.3928 3 14.3069 3 14.2107V13.7101C3 13.5514 3.15516 13.4409 3.3019 13.4952L11.775 16.6277V17.615L3.1481 14.4256Z" fill="#1ECA1C"/>
<path d="M20.8486 14.4241C20.9392 14.3923 21 14.3055 21 14.208V13.7047C21 13.5475 20.8476 13.4372 20.7014 13.4885L11.775 16.6277V17.615L20.8486 14.4241Z" fill="#1ECA1C"/>
<path d="M10.3125 4.25038C10.3125 4.10401 10.4039 3.97375 10.54 3.92604L13.1275 3.01902C13.3466 2.94219 13.575 3.1077 13.575 3.34337V5.24789C13.575 5.39427 13.4836 5.52452 13.3475 5.57224L10.76 6.47926C10.5409 6.55608 10.3125 6.39058 10.3125 6.15491V4.25038Z" fill="#A8FDA7"/>
<path d="M10.5375 4.36448C10.5375 4.21824 10.6287 4.08807 10.7646 4.04025L13.2764 3.1568C13.4226 3.1054 13.575 3.21575 13.575 3.37296V5.24789C13.575 5.39427 13.4836 5.52452 13.3475 5.57224L10.8361 6.45584C10.6899 6.50724 10.5375 6.3969 10.5375 6.23968V4.36448Z" fill="#1ECA1C"/>
<path d="M12 6.06431L12.7603 6.41565C12.9838 6.5189 13.2375 6.35284 13.2375 6.10331V4.45542C13.2375 4.32088 13.1601 4.19876 13.0397 4.14309L12 3.66269V6.06431Z" fill="#A8FDA7"/>
<path d="M13.0687 4.56598C13.0687 4.4334 12.9936 4.31268 12.8757 4.25592L12 3.83423V6.06431L12.7474 6.42422C12.8967 6.4961 13.0687 6.38543 13.0687 6.21751V4.56598Z" fill="#21EB1E"/>
</g>
</g>
</svg>
